HIERARCHY
ROOT joint_Root
{
	OFFSET 0.0 0.0 0.0
	CHANNELS 6 Xposition Yposition Zposition Zrotation Xrotation Yrotation 
	JOINT Hips
	{
		OFFSET 4.5925 91.4895 -427.239
		CHANNELS 6 Xposition Yposition Zposition Zrotation Xrotation Yrotation 
		JOINT Spine
		{
			OFFSET 15.7357 0.0 0.0
			CHANNELS 6 Xposition Yposition Zposition Zrotation Xrotation Yrotation 
			JOINT Chest
			{
				OFFSET 8.98455 -0.406207 0.0
				CHANNELS 6 Xposition Yposition Zposition Zrotation Xrotation Yrotation 
				JOINT Neck
				{
					OFFSET 16.3773 0.0 0.0
					CHANNELS 6 Xposition Yposition Zposition Zrotation Xrotation Yrotation 
					JOINT Head
					{
						OFFSET 6.45672 0.0 0.0
						CHANNELS 6 Xposition Yposition Zposition Zrotation Xrotation Yrotation 
						End Site
						{
							OFFSET 0.0 0.0 0.0
						}
					}
				}
				JOINT Shoulder_L
				{
					OFFSET 12.9942 -0.242716 4.98039
					CHANNELS 6 Xposition Yposition Zposition Zrotation Xrotation Yrotation 
					JOINT UpperArm_L
					{
						OFFSET 5.34809 0.0 0.0
						CHANNELS 6 Xposition Yposition Zposition Zrotation Xrotation Yrotation 
						JOINT LowerArm_L
						{
							OFFSET 24.3286 1.87007e-05 0.0
							CHANNELS 6 Xposition Yposition Zposition Zrotation Xrotation Yrotation 
							JOINT Hand_L
							{
								OFFSET 22.2916 0.0 0.0
								CHANNELS 6 Xposition Yposition Zposition Zrotation Xrotation Yrotation 
								End Site
								{
									OFFSET 0.0 0.0 0.0
								}
							}
						}
					}
				}
				JOINT Shoulder_R
				{
					OFFSET 12.9945 -0.242716 -4.98039
					CHANNELS 6 Xposition Yposition Zposition Zrotation Xrotation Yrotation 
					JOINT UpperArm_R
					{
						OFFSET -5.34813 0.0 0.0
						CHANNELS 6 Xposition Yposition Zposition Zrotation Xrotation Yrotation 
						JOINT LowerArm_R
						{
							OFFSET -24.3289 0.000322201 0.0
							CHANNELS 6 Xposition Yposition Zposition Zrotation Xrotation Yrotation 
							JOINT Hand_R
							{
								OFFSET -22.2915 -0.000108084 0.0
								CHANNELS 6 Xposition Yposition Zposition Zrotation Xrotation Yrotation 
								End Site
								{
									OFFSET 0.0 0.0 0.0
								}
							}
						}
					}
				}
			}
		}
		JOINT UpperLeg_L
		{
			OFFSET -2.19248 -6.46944 0.0
			CHANNELS 6 Xposition Yposition Zposition Zrotation Xrotation Yrotation 
			JOINT LowerLeg_L
			{
				OFFSET 39.0811 0.0 -1.23785e-05
				CHANNELS 6 Xposition Yposition Zposition Zrotation Xrotation Yrotation 
				JOINT Foot_L
				{
					OFFSET 40.9854 0.0 -1.26872e-05
					CHANNELS 6 Xposition Yposition Zposition Zrotation Xrotation Yrotation 
					JOINT Toes_L
					{
						OFFSET 11.7543 0.0 0.0
						CHANNELS 6 Xposition Yposition Zposition Zrotation Xrotation Yrotation 
						End Site
						{
							OFFSET 0.0 0.0 0.0
						}
					}
				}
			}
		}
		JOINT UpperLeg_R
		{
			OFFSET -2.19251 6.46944 0.0
			CHANNELS 6 Xposition Yposition Zposition Zrotation Xrotation Yrotation 
			JOINT LowerLeg_R
			{
				OFFSET -39.0811 -0.00228153 -0.0401928
				CHANNELS 6 Xposition Yposition Zposition Zrotation Xrotation Yrotation 
				JOINT Foot_R
				{
					OFFSET -40.9854 0.0 0.0
					CHANNELS 6 Xposition Yposition Zposition Zrotation Xrotation Yrotation 
					JOINT Toes_R
					{
						OFFSET -11.7543 0.0 0.0
						CHANNELS 6 Xposition Yposition Zposition Zrotation Xrotation Yrotation 
						End Site
						{
							OFFSET 0.0 0.0 0.0
						}
					}
				}
			}
		}
	}
}
MOTION
Frames:	9
Frame Time:	0.0333333
0.000000 0.000000 0.000000 0.000000 0.000000 -0.000000 102.748000 86.019300 174.517000 -80.505100 25.450100 174.395000 15.735700 0.000005 -0.000001 59.837900 82.114300 -57.992400 8.984550 -0.406207 -0.000000 6.045890 -7.931110 4.111110 16.377300 -0.000001 -0.000001 0.492442 4.914050 -3.235060 6.456720 -0.000001 -0.000000 0.106957 12.080600 -5.350650 12.994200 -0.242716 4.980390 -89.767300 -0.882683 -75.220100 5.348090 -0.000007 -0.000001 -45.922000 39.221000 -56.115100 24.328600 0.000019 0.000005 3.383880 -1.245280 -110.197000 22.291600 -0.000001 0.000005 4.191230 5.457380 -4.903140 12.994500 -0.242716 -4.980390 88.387800 5.429270 -73.426600 -5.348130 -0.000001 -0.000004 -61.789800 45.692100 31.096300 -24.328900 0.000322 -0.000009 -26.133900 -15.643300 -61.206800 -22.291500 -0.000108 -0.000004 30.282700 5.681800 -21.646700 -2.192480 -6.469440 -0.000000 172.819000 -5.778010 -10.656300 39.081100 -0.000007 -0.000012 -0.221438 0.277253 38.614300 40.985400 -0.000006 -0.000013 17.414200 -2.969930 -80.150800 11.754300 -0.000000 0.000003 -0.002720 -0.037403 -18.097800 -2.192510 6.469440 -0.000001 176.529000 8.595600 153.224000 -39.081100 -0.002282 -0.040193 -0.083222 0.015893 79.542400 -40.985400 0.000008 0.000006 11.210600 -7.902780 -47.493200 -11.754300 -0.000006 -0.000006 -0.022969 -0.183210 -24.064400
0.000000 0.000000 0.000000 0.000000 0.000000 -0.000000 105.774000 88.298300 171.689000 -77.899300 20.610600 172.186000 15.735700 0.000005 -0.000001 52.965800 81.781600 -49.621600 8.984550 -0.406207 -0.000000 5.722590 -9.936040 7.191950 16.377300 -0.000001 -0.000001 0.245940 4.660910 -2.545500 6.456720 -0.000001 -0.000000 0.362126 12.824500 -4.793250 12.994200 -0.242716 4.980390 -88.930900 -4.022060 -75.102300 5.348090 -0.000007 -0.000001 -44.216700 36.877300 -64.192000 24.328600 0.000019 0.000005 1.762530 -0.794954 -114.285000 22.291600 -0.000001 0.000005 4.035950 5.446010 -4.498430 12.994500 -0.242716 -4.980390 89.644300 1.129670 -72.496400 -5.348130 -0.000001 -0.000004 -65.350700 46.298900 38.531800 -24.328900 0.000322 -0.000009 -24.392100 -12.558200 -64.385800 -22.291500 -0.000108 -0.000004 29.090600 5.681500 -21.877200 -2.192480 -6.469440 -0.000000 178.106000 -3.226870 -3.990360 39.081100 -0.000007 -0.000012 -0.213669 0.396462 28.322300 40.985400 -0.000006 -0.000013 16.355600 0.887259 -78.119100 11.754300 -0.000000 0.000003 -0.003983 -0.051269 -18.662300 -2.192510 6.469440 -0.000001 179.684000 5.491290 150.701000 -39.081100 -0.002282 -0.040193 -0.050891 0.018897 70.711200 -40.985400 0.000008 0.000006 11.286100 -11.968800 -52.149200 -11.754300 -0.000006 -0.000006 -0.022232 -0.179349 -23.905100
0.000000 0.000000 0.000000 0.000000 0.000000 -0.000000 108.716000 90.011200 169.092000 -76.330000 17.035500 170.072000 15.735700 0.000005 -0.000001 47.840200 81.840700 -43.515500 8.984550 -0.406207 -0.000000 4.836480 -11.044100 9.128930 16.377300 -0.000001 -0.000001 0.430632 4.319930 -1.198220 6.456720 -0.000001 -0.000000 0.292630 12.814600 -3.763370 12.994200 -0.242716 4.980390 -87.931300 -7.545340 -74.620900 5.348090 -0.000007 -0.000001 -45.407900 34.853800 -68.813900 24.328600 0.000019 0.000005 1.041670 -0.530708 -117.000000 22.291600 -0.000001 0.000005 4.217850 5.428870 -3.901550 12.994500 -0.242716 -4.980390 91.224100 -3.717140 -71.760100 -5.348130 -0.000001 -0.000004 -70.205300 45.659300 44.013000 -24.328900 0.000322 -0.000009 -20.921200 -9.053250 -67.634000 -22.291500 -0.000108 -0.000004 28.387300 5.681500 -21.908000 -2.192480 -6.469440 -0.000000 -178.137000 -3.458840 2.227230 39.081100 -0.000007 -0.000012 -0.035545 0.118748 16.663800 40.985400 -0.000006 -0.000013 19.721100 4.306550 -74.374900 11.754300 -0.000000 0.000003 -0.007889 -0.087132 -20.124800 -2.192510 6.469440 -0.000001 -178.509000 3.458870 148.187000 -39.081100 -0.002282 -0.040193 -0.008079 0.006389 60.467400 -40.985400 0.000008 0.000006 10.261300 -12.193300 -55.043300 -11.754300 -0.000006 -0.000006 -0.022353 -0.179988 -23.931400
0.000000 0.000000 0.000000 0.000000 0.000000 -0.000000 111.424000 91.015000 166.441000 -76.698100 14.773500 169.286000 15.735700 0.000005 -0.000001 44.383000 81.962300 -39.966300 8.984550 -0.406207 -0.000000 4.012110 -11.618100 9.256290 16.377300 -0.000001 -0.000001 1.046460 3.909400 0.046981 6.456720 -0.000001 -0.000000 -0.264274 12.495500 -2.536840 12.994200 -0.242716 4.980390 -87.071800 -10.359300 -74.121700 5.348090 -0.000007 -0.000001 -47.268900 32.865900 -71.165400 24.328600 0.000019 0.000005 1.741290 -0.956736 -118.769000 22.291600 -0.000001 0.000005 4.674280 5.420370 -3.612460 12.994500 -0.242716 -4.980390 92.660000 -7.984740 -71.506700 -5.348130 -0.000001 -0.000004 -74.756400 44.037200 47.511500 -24.328900 0.000322 -0.000009 -17.286500 -6.022410 -71.375400 -22.291500 -0.000108 -0.000004 27.205100 5.681690 -21.776400 -2.192480 -6.469440 -0.000000 -175.899000 -5.331400 4.721610 39.081100 -0.000007 -0.000012 -0.032263 0.141692 12.827200 40.985400 -0.000006 -0.000013 18.335800 9.565360 -70.378900 11.754300 -0.000000 0.000003 -0.017322 -0.151989 -22.782000 -2.192510 6.469440 -0.000001 -178.635000 3.623990 147.160000 -39.081100 -0.002282 -0.040193 0.020140 -0.014780 48.807300 -40.985400 0.000008 0.000006 8.372090 -8.694530 -56.566500 -11.754300 -0.000006 -0.000006 -0.021950 -0.177860 -23.843700
0.000000 0.000000 0.000000 0.000000 0.000000 -0.000000 113.991000 91.051300 163.643000 -78.016000 13.341300 169.435000 15.735700 0.000005 -0.000001 42.637700 82.099900 -38.700200 8.984550 -0.406207 -0.000000 3.416540 -11.760300 8.240700 16.377300 -0.000001 -0.000001 1.295310 3.636520 0.808014 6.456720 -0.000001 -0.000000 -0.742239 11.694700 -0.811492 12.994200 -0.242716 4.980390 -86.465700 -12.127600 -73.617800 5.348090 -0.000007 -0.000001 -48.868100 31.269000 -72.088600 24.328600 0.000019 0.000005 2.125110 -1.221360 -119.874000 22.291600 -0.000001 0.000005 4.793110 5.416310 -3.475060 12.994500 -0.242716 -4.980390 93.418300 -10.403600 -71.696500 -5.348130 -0.000001 -0.000004 -77.530100 41.878800 49.210700 -24.328900 0.000322 -0.000009 -14.771500 -3.895340 -75.554500 -22.291500 -0.000108 -0.000004 25.712600 5.682060 -21.309600 -2.192480 -6.469440 -0.000000 -174.874000 -7.069610 6.094090 39.081100 -0.000007 -0.000012 -0.028787 0.121706 13.307300 40.985400 -0.000006 -0.000013 17.576300 13.269000 -69.452200 11.754300 -0.000000 0.000003 -0.027840 -0.207401 -25.068600 -2.192510 6.469440 -0.000001 -178.662000 7.276150 147.275000 -39.081100 -0.002282 -0.040193 0.030619 -0.035935 37.257400 -40.985400 0.000008 0.000006 4.678470 -0.425557 -58.643600 -11.754300 -0.000006 -0.000006 -0.024157 -0.189314 -24.316500
0.000000 0.000000 0.000000 0.000000 0.000000 -0.000000 116.687000 90.350100 160.592000 -79.096200 12.006400 170.056000 15.735700 0.000005 -0.000001 42.814900 82.168500 -39.361600 8.984550 -0.406207 -0.000000 3.298640 -11.612300 7.253370 16.377300 -0.000001 -0.000001 0.940794 3.260540 0.862362 6.456720 -0.000001 -0.000000 -1.046510 10.550500 1.033000 12.994200 -0.242716 4.980390 -86.319300 -12.362700 -73.276400 5.348090 -0.000007 -0.000001 -49.520900 30.319900 -71.876000 24.328600 0.000019 0.000005 2.365580 -1.382420 -120.286000 22.291600 -0.000001 0.000005 5.095410 5.420360 -3.611730 12.994500 -0.242716 -4.980390 93.268900 -10.462700 -72.541400 -5.348130 -0.000001 -0.000004 -78.357800 39.393900 49.097300 -24.328900 0.000322 -0.000009 -15.345100 -2.910380 -79.512600 -22.291500 -0.000108 -0.000004 25.915800 5.682040 -21.181200 -2.192480 -6.469440 -0.000000 -174.097000 -5.242360 7.386590 39.081100 -0.000007 -0.000012 -0.024644 0.087963 15.650500 40.985400 -0.000006 -0.000013 16.616300 13.798600 -69.837500 11.754300 -0.000000 0.000003 -0.040443 -0.261883 -27.335800 -2.192510 6.469440 -0.000001 -177.165000 13.660000 147.406000 -39.081100 -0.002282 -0.040193 0.024814 -0.039439 28.606900 -40.985400 0.000008 0.000006 -5.874090 8.813980 -56.825100 -11.754300 -0.000006 -0.000006 -0.026325 -0.200099 -24.762500
0.000000 0.000000 0.000000 0.000000 0.000000 -0.000000 119.669000 89.085300 157.137000 -80.043900 11.304100 171.118000 15.735700 0.000005 -0.000001 45.586900 82.300800 -42.609500 8.984550 -0.406207 -0.000000 3.578660 -10.872400 6.302950 16.377300 -0.000001 -0.000001 0.251705 2.846170 0.696380 6.456720 -0.000001 -0.000000 -1.122750 9.419520 2.038930 12.994200 -0.242716 4.980390 -86.801700 -10.824300 -73.430000 5.348090 -0.000007 -0.000001 -49.421200 30.615100 -69.852200 24.328600 0.000019 0.000005 2.482710 -1.436040 -120.029000 22.291600 -0.000001 0.000005 5.524720 5.421210 -3.641800 12.994500 -0.242716 -4.980390 92.378400 -8.244610 -73.851000 -5.348130 -0.000001 -0.000004 -77.334100 37.202500 46.512500 -24.328900 0.000322 -0.000009 -16.917900 -2.353500 -82.308800 -22.291500 -0.000108 -0.000004 27.955300 5.682020 -21.553400 -2.192480 -6.469440 -0.000000 -173.663000 -2.766070 8.986960 39.081100 -0.000007 -0.000012 -0.018402 0.052482 19.322600 40.985400 -0.000006 -0.000013 15.793600 12.678200 -70.743100 11.754300 -0.000000 0.000003 -0.064042 -0.344706 -30.827800 -2.192510 6.469440 -0.000001 -174.289000 19.526000 146.085000 -39.081100 -0.002282 -0.040193 0.022210 -0.035743 27.873400 -40.985400 0.000008 0.000006 -9.437190 10.565500 -56.313300 -11.754300 -0.000006 -0.000006 -0.027491 -0.205724 -24.995400
0.000000 0.000000 0.000000 0.000000 0.000000 -0.000000 122.769000 87.512100 153.153000 -80.996600 11.164800 171.812000 15.735700 0.000005 -0.000001 48.590000 82.723500 -46.092900 8.984550 -0.406207 -0.000000 3.407860 -9.710240 5.287740 16.377300 -0.000001 -0.000001 -0.525401 2.238030 1.072120 6.456720 -0.000001 -0.000000 -0.724941 8.923460 1.604310 12.994200 -0.242716 4.980390 -87.786500 -7.822030 -74.146600 5.348090 -0.000007 -0.000001 -50.010100 33.191500 -63.811500 24.328600 0.000019 0.000005 2.843130 -1.591040 -119.209000 22.291600 -0.000001 0.000005 5.997390 5.423970 -3.732260 12.994500 -0.242716 -4.980390 90.987000 -3.732550 -75.192000 -5.348130 -0.000001 -0.000004 -74.404100 35.913100 41.109000 -24.328900 0.000322 -0.000009 -17.697200 -2.139540 -83.325500 -22.291500 -0.000108 -0.000004 30.688300 5.681350 -22.091700 -2.192480 -6.469440 -0.000000 -173.405000 -1.611530 9.782370 39.081100 -0.000007 -0.000012 -0.011574 0.025360 24.531400 40.985400 -0.000006 -0.000013 14.991200 11.780400 -70.863600 11.754300 -0.000000 0.000003 -0.116818 -0.484511 -36.888900 -2.192510 6.469440 -0.000001 -171.432000 23.510400 143.055000 -39.081100 -0.002282 -0.040193 0.020030 -0.024581 34.250100 -40.985400 0.000008 0.000006 -4.977120 7.648860 -57.437600 -11.754300 -0.000006 -0.000006 -0.025925 -0.198141 -24.681500
0.000000 0.000000 0.000000 0.000000 0.000000 -0.000000 125.813000 85.908200 148.497000 -81.723600 10.710000 172.823000 15.735700 0.000005 -0.000001 51.817400 83.255000 -49.565600 8.984550 -0.406207 -0.000000 3.036440 -8.423830 4.729030 16.377300 -0.000001 -0.000001 -0.533602 1.847790 0.781257 6.456720 -0.000001 -0.000000 -0.227458 8.233790 0.977965 12.994200 -0.242716 4.980390 -89.231100 -3.013960 -75.699500 5.348090 -0.000007 -0.000001 -53.415800 37.106200 -50.955200 24.328600 0.000019 0.000005 2.981240 -1.473240 -116.278000 22.291600 -0.000001 0.000005 7.264650 5.441680 -4.345720 12.994500 -0.242716 -4.980390 89.365800 2.655210 -76.529100 -5.348130 -0.000001 -0.000004 -69.865300 35.438000 33.387600 -24.328900 0.000322 -0.000009 -19.028500 -2.425450 -83.003300 -22.291500 -0.000108 -0.000004 32.465600 5.681330 -21.865300 -2.192480 -6.469440 -0.000000 -172.548000 -1.654390 9.110150 39.081100 -0.000007 -0.000012 -0.001837 0.002846 32.850000 40.985400 -0.000006 -0.000013 13.696200 12.006200 -67.535900 11.754300 -0.000000 0.000003 -0.239858 -0.707552 -47.230700 -2.192510 6.469440 -0.000001 -172.348000 23.846500 142.151000 -39.081100 -0.002282 -0.040193 -0.221508 0.233346 43.928600 -40.985400 0.000008 0.000006 -0.504525 6.933260 -61.565100 -11.754300 -0.000006 -0.000006 -0.008320 -0.090623 -20.263600
